<mxfile host="app.diagrams.net" modified="2022-05-23T09:25:08.978Z" agent="5.0 (Windows NT 10.0; Win64; x64) AppleWebKit/537.36 (KHTML, like Gecko) Chrome/101.0.4951.64 Safari/537.36 Edg/101.0.1210.47" etag="w0mtp3_hei1kOfe3pxeR" version="18.1.1" type="github">
  <diagram name="Page-1" id="9f46799a-70d6-7492-0946-bef42562c5a5">
    <mxGraphModel dx="2975" dy="1020" grid="1" gridSize="10" guides="1" tooltips="1" connect="1" arrows="1" fold="1" page="1" pageScale="1" pageWidth="1100" pageHeight="850" background="none" math="0" shadow="0">
      <root>
        <mxCell id="0" />
        <mxCell id="1" parent="0" />
        <mxCell id="MC5SC2ZRKaE6kcOdO4WR-20" value="" style="group" vertex="1" connectable="0" parent="1">
          <mxGeometry x="-610" y="250" width="120" height="140" as="geometry" />
        </mxCell>
        <mxCell id="MC5SC2ZRKaE6kcOdO4WR-19" value="" style="group;fillColor=#dae8fc;strokeColor=#6c8ebf;container=0;" vertex="1" connectable="0" parent="MC5SC2ZRKaE6kcOdO4WR-20">
          <mxGeometry width="120" height="140" as="geometry" />
        </mxCell>
        <mxCell id="MC5SC2ZRKaE6kcOdO4WR-14" value="&lt;span style=&quot;color: rgb(25, 25, 25); font-family: 微软雅黑;&quot;&gt;&lt;font style=&quot;font-size: 12px;&quot;&gt;FEC Header backup（60 Byte）①&lt;/font&gt;&lt;/span&gt;" style="rounded=0;whiteSpace=wrap;html=1;fillColor=#ffe6cc;strokeColor=#d79b00;" vertex="1" parent="MC5SC2ZRKaE6kcOdO4WR-20">
          <mxGeometry width="120" height="40" as="geometry" />
        </mxCell>
        <mxCell id="MC5SC2ZRKaE6kcOdO4WR-15" value="&lt;span style=&quot;color: rgb(25, 25, 25); font-family: 微软雅黑; font-size: 13.3333px;&quot;&gt;4096 - 60*2 个&lt;br&gt;填充 0&lt;/span&gt;" style="rounded=0;whiteSpace=wrap;html=1;fillColor=#dae8fc;strokeColor=#6c8ebf;" vertex="1" parent="MC5SC2ZRKaE6kcOdO4WR-20">
          <mxGeometry y="40" width="120" height="60" as="geometry" />
        </mxCell>
        <mxCell id="MC5SC2ZRKaE6kcOdO4WR-18" value="&lt;span style=&quot;color: rgb(25, 25, 25); font-family: 微软雅黑;&quot;&gt;&lt;font style=&quot;font-size: 12px;&quot;&gt;FEC Header&lt;br&gt;（60 Byte）②&lt;/font&gt;&lt;/span&gt;" style="rounded=0;whiteSpace=wrap;html=1;fillColor=#ffe6cc;strokeColor=#d79b00;" vertex="1" parent="MC5SC2ZRKaE6kcOdO4WR-20">
          <mxGeometry y="100" width="120" height="40" as="geometry" />
        </mxCell>
        <mxCell id="MC5SC2ZRKaE6kcOdO4WR-21" style="edgeStyle=orthogonalEdgeStyle;rounded=0;orthogonalLoop=1;jettySize=auto;html=1;exitX=1;exitY=1;exitDx=0;exitDy=0;entryX=0;entryY=1;entryDx=0;entryDy=0;fontSize=12;dashed=1;" edge="1" parent="1" source="MC5SC2ZRKaE6kcOdO4WR-1" target="MC5SC2ZRKaE6kcOdO4WR-18">
          <mxGeometry relative="1" as="geometry">
            <Array as="points">
              <mxPoint x="-650" y="430" />
              <mxPoint x="-650" y="430" />
            </Array>
          </mxGeometry>
        </mxCell>
        <mxCell id="MC5SC2ZRKaE6kcOdO4WR-22" style="edgeStyle=orthogonalEdgeStyle;rounded=0;orthogonalLoop=1;jettySize=auto;html=1;exitX=1;exitY=0;exitDx=0;exitDy=0;entryX=0;entryY=0;entryDx=0;entryDy=0;dashed=1;fontSize=12;" edge="1" parent="1" source="MC5SC2ZRKaE6kcOdO4WR-1" target="MC5SC2ZRKaE6kcOdO4WR-14">
          <mxGeometry relative="1" as="geometry">
            <Array as="points">
              <mxPoint x="-680" y="250" />
            </Array>
          </mxGeometry>
        </mxCell>
        <mxCell id="MC5SC2ZRKaE6kcOdO4WR-40" value="" style="group" vertex="1" connectable="0" parent="1">
          <mxGeometry x="-430" y="30" width="260" height="230" as="geometry" />
        </mxCell>
        <mxCell id="MC5SC2ZRKaE6kcOdO4WR-33" value="&lt;font face=&quot;微软雅黑&quot; color=&quot;#191919&quot;&gt;8字节 inp size&lt;/font&gt;" style="rounded=0;whiteSpace=wrap;html=1;fillColor=#ffcccc;strokeColor=#36393d;align=center;" vertex="1" parent="MC5SC2ZRKaE6kcOdO4WR-40">
          <mxGeometry y="70" width="260" height="40" as="geometry" />
        </mxCell>
        <mxCell id="MC5SC2ZRKaE6kcOdO4WR-34" value="&lt;font face=&quot;微软雅黑&quot; color=&quot;#191919&quot;&gt;32字节 哈希值&lt;/font&gt;" style="rounded=0;whiteSpace=wrap;html=1;align=center;fillColor=#eeeeee;strokeColor=#36393d;" vertex="1" parent="MC5SC2ZRKaE6kcOdO4WR-40">
          <mxGeometry width="260" height="70" as="geometry" />
        </mxCell>
        <mxCell id="MC5SC2ZRKaE6kcOdO4WR-37" value="" style="group" vertex="1" connectable="0" parent="MC5SC2ZRKaE6kcOdO4WR-40">
          <mxGeometry y="110" width="260" height="40" as="geometry" />
        </mxCell>
        <mxCell id="MC5SC2ZRKaE6kcOdO4WR-31" value="&lt;font face=&quot;微软雅黑&quot; color=&quot;#191919&quot;&gt;4字节 FEC Data size&lt;/font&gt;" style="rounded=0;whiteSpace=wrap;html=1;fillColor=#ffe6cc;strokeColor=#d79b00;align=left;" vertex="1" parent="MC5SC2ZRKaE6kcOdO4WR-37">
          <mxGeometry width="130" height="40" as="geometry" />
        </mxCell>
        <mxCell id="MC5SC2ZRKaE6kcOdO4WR-32" value="&lt;font face=&quot;微软雅黑&quot; color=&quot;#191919&quot;&gt;4字节 对齐填充0&lt;/font&gt;" style="rounded=0;whiteSpace=wrap;html=1;fillColor=#cdeb8b;strokeColor=#36393d;align=left;" vertex="1" parent="MC5SC2ZRKaE6kcOdO4WR-37">
          <mxGeometry x="130" width="130" height="40" as="geometry" />
        </mxCell>
        <mxCell id="MC5SC2ZRKaE6kcOdO4WR-38" value="" style="group" vertex="1" connectable="0" parent="MC5SC2ZRKaE6kcOdO4WR-40">
          <mxGeometry y="150" width="260" height="40" as="geometry" />
        </mxCell>
        <mxCell id="MC5SC2ZRKaE6kcOdO4WR-29" value="&lt;font face=&quot;微软雅黑&quot; color=&quot;#191919&quot;&gt;4字节 FEC头size&lt;/font&gt;" style="rounded=0;whiteSpace=wrap;html=1;fillColor=#f9f7ed;strokeColor=#36393d;align=left;" vertex="1" parent="MC5SC2ZRKaE6kcOdO4WR-38">
          <mxGeometry width="130" height="40" as="geometry" />
        </mxCell>
        <mxCell id="MC5SC2ZRKaE6kcOdO4WR-30" value="&lt;font face=&quot;微软雅黑&quot; color=&quot;#191919&quot;&gt;4字节 roots&lt;/font&gt;" style="rounded=0;whiteSpace=wrap;html=1;fillColor=#cce5ff;strokeColor=#36393d;align=left;" vertex="1" parent="MC5SC2ZRKaE6kcOdO4WR-38">
          <mxGeometry x="130" width="130" height="40" as="geometry" />
        </mxCell>
        <mxCell id="MC5SC2ZRKaE6kcOdO4WR-39" value="" style="group" vertex="1" connectable="0" parent="MC5SC2ZRKaE6kcOdO4WR-40">
          <mxGeometry y="190" width="260" height="40" as="geometry" />
        </mxCell>
        <mxCell id="MC5SC2ZRKaE6kcOdO4WR-25" value="&lt;font face=&quot;微软雅黑&quot; color=&quot;#191919&quot;&gt;4字节 magic number&lt;/font&gt;" style="rounded=0;whiteSpace=wrap;html=1;fillColor=#f5f5f5;strokeColor=#666666;align=left;fontColor=#333333;" vertex="1" parent="MC5SC2ZRKaE6kcOdO4WR-39">
          <mxGeometry width="130" height="40" as="geometry" />
        </mxCell>
        <mxCell id="MC5SC2ZRKaE6kcOdO4WR-28" value="&lt;font face=&quot;微软雅黑&quot; color=&quot;#191919&quot;&gt;4字节 version&lt;/font&gt;" style="rounded=0;whiteSpace=wrap;html=1;fillColor=#ffff88;strokeColor=#36393d;align=left;" vertex="1" parent="MC5SC2ZRKaE6kcOdO4WR-39">
          <mxGeometry x="130" width="130" height="40" as="geometry" />
        </mxCell>
        <mxCell id="MC5SC2ZRKaE6kcOdO4WR-41" style="edgeStyle=orthogonalEdgeStyle;rounded=0;orthogonalLoop=1;jettySize=auto;html=1;exitX=1;exitY=1;exitDx=0;exitDy=0;entryX=0;entryY=1;entryDx=0;entryDy=0;dashed=1;fontSize=12;" edge="1" parent="1" source="MC5SC2ZRKaE6kcOdO4WR-14" target="MC5SC2ZRKaE6kcOdO4WR-25">
          <mxGeometry relative="1" as="geometry">
            <Array as="points">
              <mxPoint x="-480" y="290" />
              <mxPoint x="-480" y="290" />
            </Array>
          </mxGeometry>
        </mxCell>
        <mxCell id="MC5SC2ZRKaE6kcOdO4WR-42" style="edgeStyle=orthogonalEdgeStyle;rounded=0;orthogonalLoop=1;jettySize=auto;html=1;exitX=1;exitY=0;exitDx=0;exitDy=0;entryX=0;entryY=0;entryDx=0;entryDy=0;dashed=1;fontSize=12;" edge="1" parent="1" source="MC5SC2ZRKaE6kcOdO4WR-14" target="MC5SC2ZRKaE6kcOdO4WR-34">
          <mxGeometry relative="1" as="geometry">
            <Array as="points">
              <mxPoint x="-490" y="30" />
            </Array>
          </mxGeometry>
        </mxCell>
        <mxCell id="MC5SC2ZRKaE6kcOdO4WR-53" value="" style="group" vertex="1" connectable="0" parent="1">
          <mxGeometry x="-430" y="390" width="140" height="240" as="geometry" />
        </mxCell>
        <mxCell id="MC5SC2ZRKaE6kcOdO4WR-46" value="&lt;font face=&quot;微软雅黑&quot; color=&quot;#191919&quot;&gt;0填充至32KB&lt;/font&gt;" style="rounded=0;whiteSpace=wrap;html=1;fillColor=#eeeeee;strokeColor=#36393d;" vertex="1" parent="MC5SC2ZRKaE6kcOdO4WR-53">
          <mxGeometry width="140" height="40" as="geometry" />
        </mxCell>
        <mxCell id="MC5SC2ZRKaE6kcOdO4WR-48" value="&lt;div&gt;&lt;font face=&quot;微软雅黑&quot; color=&quot;#191919&quot;&gt;table length字节&amp;nbsp;&lt;/font&gt;&lt;/div&gt;&lt;div&gt;&lt;font face=&quot;微软雅黑&quot; color=&quot;#191919&quot;&gt;verity table&lt;/font&gt;&lt;/div&gt;" style="rounded=0;whiteSpace=wrap;html=1;fillColor=#f9f7ed;strokeColor=#36393d;" vertex="1" parent="MC5SC2ZRKaE6kcOdO4WR-53">
          <mxGeometry y="40" width="140" height="40" as="geometry" />
        </mxCell>
        <mxCell id="MC5SC2ZRKaE6kcOdO4WR-49" value="&lt;font face=&quot;微软雅黑&quot; color=&quot;#191919&quot;&gt;4字节 table length&lt;/font&gt;" style="rounded=0;whiteSpace=wrap;html=1;fillColor=#ffcc99;strokeColor=#36393d;" vertex="1" parent="MC5SC2ZRKaE6kcOdO4WR-53">
          <mxGeometry y="80" width="140" height="40" as="geometry" />
        </mxCell>
        <mxCell id="MC5SC2ZRKaE6kcOdO4WR-50" value="&lt;div&gt;&lt;font face=&quot;微软雅黑&quot; color=&quot;#191919&quot;&gt;256字节&amp;nbsp;&lt;/font&gt;&lt;/div&gt;&lt;div&gt;&lt;font face=&quot;微软雅黑&quot; color=&quot;#191919&quot;&gt;signature&lt;/font&gt;&lt;/div&gt;" style="rounded=0;whiteSpace=wrap;html=1;fillColor=#cce5ff;strokeColor=#36393d;" vertex="1" parent="MC5SC2ZRKaE6kcOdO4WR-53">
          <mxGeometry y="120" width="140" height="40" as="geometry" />
        </mxCell>
        <mxCell id="MC5SC2ZRKaE6kcOdO4WR-51" value="&lt;font face=&quot;微软雅黑&quot; color=&quot;#191919&quot;&gt;4字节 protocol version&lt;/font&gt;" style="rounded=0;whiteSpace=wrap;html=1;fillColor=#ffff88;strokeColor=#36393d;" vertex="1" parent="MC5SC2ZRKaE6kcOdO4WR-53">
          <mxGeometry y="160" width="140" height="40" as="geometry" />
        </mxCell>
        <mxCell id="MC5SC2ZRKaE6kcOdO4WR-52" value="&lt;font face=&quot;微软雅黑&quot; color=&quot;#191919&quot;&gt;4字节 magic number&lt;/font&gt;" style="rounded=0;whiteSpace=wrap;html=1;fillColor=#cdeb8b;strokeColor=#36393d;" vertex="1" parent="MC5SC2ZRKaE6kcOdO4WR-53">
          <mxGeometry y="200" width="140" height="40" as="geometry" />
        </mxCell>
        <mxCell id="MC5SC2ZRKaE6kcOdO4WR-54" style="edgeStyle=orthogonalEdgeStyle;rounded=0;orthogonalLoop=1;jettySize=auto;html=1;exitX=1;exitY=0;exitDx=0;exitDy=0;dashed=1;fontSize=12;" edge="1" parent="1" source="MC5SC2ZRKaE6kcOdO4WR-4">
          <mxGeometry relative="1" as="geometry">
            <mxPoint x="-430" y="390" as="targetPoint" />
            <Array as="points">
              <mxPoint x="-460" y="490" />
              <mxPoint x="-460" y="390" />
            </Array>
          </mxGeometry>
        </mxCell>
        <mxCell id="MC5SC2ZRKaE6kcOdO4WR-56" style="edgeStyle=orthogonalEdgeStyle;rounded=0;orthogonalLoop=1;jettySize=auto;html=1;exitX=1;exitY=0;exitDx=0;exitDy=0;entryX=-0.019;entryY=0.985;entryDx=0;entryDy=0;entryPerimeter=0;dashed=1;fontSize=12;" edge="1" parent="1" source="MC5SC2ZRKaE6kcOdO4WR-5" target="MC5SC2ZRKaE6kcOdO4WR-52">
          <mxGeometry relative="1" as="geometry">
            <Array as="points">
              <mxPoint x="-555" y="550" />
              <mxPoint x="-555" y="630" />
              <mxPoint x="-433" y="630" />
            </Array>
          </mxGeometry>
        </mxCell>
        <mxCell id="MC5SC2ZRKaE6kcOdO4WR-57" value="inp_size - 32K" style="text;html=1;align=center;verticalAlign=middle;resizable=0;points=[];autosize=1;strokeColor=none;fillColor=none;fontSize=12;" vertex="1" parent="1">
          <mxGeometry x="-680" y="530" width="90" height="20" as="geometry" />
        </mxCell>
        <mxCell id="MC5SC2ZRKaE6kcOdO4WR-58" value="inp_size" style="text;html=1;align=center;verticalAlign=middle;resizable=0;points=[];autosize=1;strokeColor=none;fillColor=none;fontSize=12;" vertex="1" parent="1">
          <mxGeometry x="-680" y="470" width="60" height="20" as="geometry" />
        </mxCell>
        <mxCell id="MC5SC2ZRKaE6kcOdO4WR-60" value="①、②为相同结构" style="text;html=1;align=center;verticalAlign=middle;resizable=0;points=[];autosize=1;strokeColor=none;fillColor=none;fontSize=12;" vertex="1" parent="1">
          <mxGeometry x="-200" y="780" width="110" height="20" as="geometry" />
        </mxCell>
        <mxCell id="MC5SC2ZRKaE6kcOdO4WR-68" value="" style="group" vertex="1" connectable="0" parent="1">
          <mxGeometry x="-1050" y="308" width="370" height="390" as="geometry" />
        </mxCell>
        <mxCell id="MC5SC2ZRKaE6kcOdO4WR-63" value="" style="group" vertex="1" connectable="0" parent="MC5SC2ZRKaE6kcOdO4WR-68">
          <mxGeometry x="170" width="200" height="390" as="geometry" />
        </mxCell>
        <mxCell id="MC5SC2ZRKaE6kcOdO4WR-1" value="FEC Data 4K" style="rounded=0;whiteSpace=wrap;html=1;fillColor=#ffe6cc;strokeColor=#d79b00;" vertex="1" parent="MC5SC2ZRKaE6kcOdO4WR-63">
          <mxGeometry width="200" height="60" as="geometry" />
        </mxCell>
        <mxCell id="MC5SC2ZRKaE6kcOdO4WR-2" value="&lt;span style=&quot;&quot;&gt;FEC Data&lt;/span&gt;" style="whiteSpace=wrap;html=1;rounded=0;fillColor=#fff2cc;strokeColor=#d6b656;" vertex="1" parent="MC5SC2ZRKaE6kcOdO4WR-63">
          <mxGeometry y="60" width="200" height="60" as="geometry" />
        </mxCell>
        <mxCell id="MC5SC2ZRKaE6kcOdO4WR-4" value="Verity metadata 32K" style="whiteSpace=wrap;html=1;rounded=0;fillColor=#f8cecc;strokeColor=#b85450;" vertex="1" parent="MC5SC2ZRKaE6kcOdO4WR-63">
          <mxGeometry y="120" width="200" height="60" as="geometry" />
        </mxCell>
        <mxCell id="MC5SC2ZRKaE6kcOdO4WR-5" value="Verity tree" style="whiteSpace=wrap;html=1;rounded=0;fillColor=#e1d5e7;strokeColor=#9673a6;" vertex="1" parent="MC5SC2ZRKaE6kcOdO4WR-63">
          <mxGeometry y="180" width="200" height="60" as="geometry" />
        </mxCell>
        <mxCell id="MC5SC2ZRKaE6kcOdO4WR-6" value="Data Blocks" style="whiteSpace=wrap;html=1;rounded=0;fillColor=#d5e8d4;strokeColor=#82b366;" vertex="1" parent="MC5SC2ZRKaE6kcOdO4WR-63">
          <mxGeometry y="240" width="200" height="150" as="geometry" />
        </mxCell>
        <mxCell id="MC5SC2ZRKaE6kcOdO4WR-67" value="" style="group" vertex="1" connectable="0" parent="MC5SC2ZRKaE6kcOdO4WR-68">
          <mxGeometry width="120" height="390" as="geometry" />
        </mxCell>
        <mxCell id="MC5SC2ZRKaE6kcOdO4WR-64" value="" style="endArrow=classic;html=1;rounded=0;dashed=1;fontSize=12;" edge="1" parent="MC5SC2ZRKaE6kcOdO4WR-67">
          <mxGeometry width="50" height="50" relative="1" as="geometry">
            <mxPoint x="120" y="390" as="sourcePoint" />
            <mxPoint x="120" as="targetPoint" />
          </mxGeometry>
        </mxCell>
        <mxCell id="MC5SC2ZRKaE6kcOdO4WR-65" value="低地址(0)" style="text;html=1;align=center;verticalAlign=middle;resizable=0;points=[];autosize=1;strokeColor=none;fillColor=none;fontSize=12;" vertex="1" parent="MC5SC2ZRKaE6kcOdO4WR-67">
          <mxGeometry y="370" width="70" height="20" as="geometry" />
        </mxCell>
        <mxCell id="MC5SC2ZRKaE6kcOdO4WR-66" value="高地址(block_size)" style="text;html=1;align=center;verticalAlign=middle;resizable=0;points=[];autosize=1;strokeColor=none;fillColor=none;fontSize=12;" vertex="1" parent="MC5SC2ZRKaE6kcOdO4WR-67">
          <mxGeometry y="2" width="120" height="20" as="geometry" />
        </mxCell>
      </root>
    </mxGraphModel>
  </diagram>
</mxfile>
